<svg xmlns="http://www.w3.org/2000/svg" xmlns:xlink="http://www.w3.org/1999/xlink" width="500" zoomAndPan="magnify" viewBox="0 0 375 374.999991" height="500" preserveAspectRatio="xMidYMid meet" version="1.0"><defs><clipPath id="id1"><path d="M 59.515625 34.570312 L 114.265625 34.570312 L 114.265625 303.070312 L 59.515625 303.070312 Z M 59.515625 34.570312 " clip-rule="nonzero"/></clipPath><clipPath id="id2"><path d="M 126.761719 84.460938 L 181.511719 84.460938 L 181.511719 302.710938 L 126.761719 302.710938 Z M 126.761719 84.460938 " clip-rule="nonzero"/></clipPath><clipPath id="id3"><path d="M 193.738281 50.839844 L 248.488281 50.839844 L 248.488281 302.839844 L 193.738281 302.839844 Z M 193.738281 50.839844 " clip-rule="nonzero"/></clipPath><clipPath id="id4"><path d="M 260.710938 67.109375 L 315.460938 67.109375 L 315.460938 303.355469 L 260.710938 303.355469 Z M 260.710938 67.109375 " clip-rule="nonzero"/></clipPath><clipPath id="id5"><path d="M 59.515625 310.605469 L 315.265625 310.605469 L 315.265625 340.605469 L 59.515625 340.605469 Z M 59.515625 310.605469 " clip-rule="nonzero"/></clipPath></defs><g clip-path="url(#id1)"><path fill="#0460d9" d="M 59.515625 34.597656 L 114.265625 34.597656 L 114.265625 303.042969 L 59.515625 303.042969 L 59.515625 34.597656 " fill-opacity="1" fill-rule="nonzero"/></g><g clip-path="url(#id2)"><path fill="#f23005" d="M 126.761719 84.480469 L 181.511719 84.480469 L 181.511719 302.691406 L 126.761719 302.691406 L 126.761719 84.480469 " fill-opacity="1" fill-rule="nonzero"/></g><g clip-path="url(#id3)"><path fill="#f2a649" d="M 193.738281 50.859375 L 248.488281 50.859375 L 248.488281 302.816406 L 193.738281 302.816406 L 193.738281 50.859375 " fill-opacity="1" fill-rule="nonzero"/></g><g clip-path="url(#id4)"><path fill="#005c53" d="M 260.710938 67.128906 L 315.460938 67.128906 L 315.460938 303.335938 L 260.710938 303.335938 L 260.710938 67.128906 " fill-opacity="1" fill-rule="nonzero"/></g><g clip-path="url(#id5)"><path fill="#592202" d="M 59.523438 310.605469 L 315.257812 310.605469 L 315.257812 340.605469 L 59.523438 340.605469 L 59.523438 310.605469 " fill-opacity="1" fill-rule="nonzero"/></g></svg>